<mxfile host="app.diagrams.net" modified="2024-02-17T23:51:03.956Z" agent="Mozilla/5.0 (Windows NT 10.0; Win64; x64) AppleWebKit/537.36 (KHTML, like Gecko) Chrome/121.0.0.0 Safari/537.36 Edg/121.0.0.0" etag="PZRynpPdv0wxiCLJJpOJ" version="23.1.5" type="device">
  <diagram name="Page-1" id="F__6O3NjW0Q5qKLDk0uc">
    <mxGraphModel dx="1405" dy="691" grid="1" gridSize="10" guides="1" tooltips="1" connect="1" arrows="1" fold="1" page="1" pageScale="1" pageWidth="850" pageHeight="1100" math="0" shadow="0">
      <root>
        <mxCell id="0" />
        <mxCell id="1" parent="0" />
        <mxCell id="TwpSb7jkZS82dPPqpPZG-1" value="Video" style="swimlane;fontStyle=1;align=center;verticalAlign=top;childLayout=stackLayout;horizontal=1;startSize=26;horizontalStack=0;resizeParent=1;resizeParentMax=0;resizeLast=0;collapsible=1;marginBottom=0;whiteSpace=wrap;html=1;" parent="1" vertex="1">
          <mxGeometry x="40" y="90" width="160" height="114" as="geometry" />
        </mxCell>
        <mxCell id="TwpSb7jkZS82dPPqpPZG-2" value="+ _title: string&lt;br&gt;+ _author: string&lt;br&gt;+ _length : int" style="text;strokeColor=none;fillColor=none;align=left;verticalAlign=top;spacingLeft=4;spacingRight=4;overflow=hidden;rotatable=0;points=[[0,0.5],[1,0.5]];portConstraint=eastwest;whiteSpace=wrap;html=1;" parent="TwpSb7jkZS82dPPqpPZG-1" vertex="1">
          <mxGeometry y="26" width="160" height="54" as="geometry" />
        </mxCell>
        <mxCell id="TwpSb7jkZS82dPPqpPZG-3" value="" style="line;strokeWidth=1;fillColor=none;align=left;verticalAlign=middle;spacingTop=-1;spacingLeft=3;spacingRight=3;rotatable=0;labelPosition=right;points=[];portConstraint=eastwest;strokeColor=inherit;" parent="TwpSb7jkZS82dPPqpPZG-1" vertex="1">
          <mxGeometry y="80" width="160" height="8" as="geometry" />
        </mxCell>
        <mxCell id="TwpSb7jkZS82dPPqpPZG-4" value="+ DisplayInfo(): void" style="text;strokeColor=none;fillColor=none;align=left;verticalAlign=top;spacingLeft=4;spacingRight=4;overflow=hidden;rotatable=0;points=[[0,0.5],[1,0.5]];portConstraint=eastwest;whiteSpace=wrap;html=1;" parent="TwpSb7jkZS82dPPqpPZG-1" vertex="1">
          <mxGeometry y="88" width="160" height="26" as="geometry" />
        </mxCell>
        <mxCell id="TwpSb7jkZS82dPPqpPZG-5" value="Comment" style="swimlane;fontStyle=1;align=center;verticalAlign=top;childLayout=stackLayout;horizontal=1;startSize=26;horizontalStack=0;resizeParent=1;resizeParentMax=0;resizeLast=0;collapsible=1;marginBottom=0;whiteSpace=wrap;html=1;" parent="1" vertex="1">
          <mxGeometry x="40" y="220" width="160" height="124" as="geometry" />
        </mxCell>
        <mxCell id="TwpSb7jkZS82dPPqpPZG-6" value="+ _name: string&lt;br&gt;&lt;div&gt;+ _text: string&lt;/div&gt;" style="text;strokeColor=none;fillColor=none;align=left;verticalAlign=top;spacingLeft=4;spacingRight=4;overflow=hidden;rotatable=0;points=[[0,0.5],[1,0.5]];portConstraint=eastwest;whiteSpace=wrap;html=1;" parent="TwpSb7jkZS82dPPqpPZG-5" vertex="1">
          <mxGeometry y="26" width="160" height="64" as="geometry" />
        </mxCell>
        <mxCell id="TwpSb7jkZS82dPPqpPZG-7" value="" style="line;strokeWidth=1;fillColor=none;align=left;verticalAlign=middle;spacingTop=-1;spacingLeft=3;spacingRight=3;rotatable=0;labelPosition=right;points=[];portConstraint=eastwest;strokeColor=inherit;" parent="TwpSb7jkZS82dPPqpPZG-5" vertex="1">
          <mxGeometry y="90" width="160" height="8" as="geometry" />
        </mxCell>
        <mxCell id="TwpSb7jkZS82dPPqpPZG-8" value="DisplayInfo(): void" style="text;strokeColor=none;fillColor=none;align=left;verticalAlign=top;spacingLeft=4;spacingRight=4;overflow=hidden;rotatable=0;points=[[0,0.5],[1,0.5]];portConstraint=eastwest;whiteSpace=wrap;html=1;" parent="TwpSb7jkZS82dPPqpPZG-5" vertex="1">
          <mxGeometry y="98" width="160" height="26" as="geometry" />
        </mxCell>
        <mxCell id="TwpSb7jkZS82dPPqpPZG-9" value="Abstraction" style="rounded=0;whiteSpace=wrap;html=1;" parent="1" vertex="1">
          <mxGeometry x="40" y="30" width="160" height="40" as="geometry" />
        </mxCell>
        <mxCell id="TwpSb7jkZS82dPPqpPZG-10" value="Encapsulation" style="rounded=0;whiteSpace=wrap;html=1;" parent="1" vertex="1">
          <mxGeometry x="230" y="30" width="190" height="40" as="geometry" />
        </mxCell>
        <mxCell id="TwpSb7jkZS82dPPqpPZG-11" value="Product" style="swimlane;fontStyle=1;align=center;verticalAlign=top;childLayout=stackLayout;horizontal=1;startSize=26;horizontalStack=0;resizeParent=1;resizeParentMax=0;resizeLast=0;collapsible=1;marginBottom=0;whiteSpace=wrap;html=1;" parent="1" vertex="1">
          <mxGeometry x="230" y="90" width="190" height="134" as="geometry" />
        </mxCell>
        <mxCell id="TwpSb7jkZS82dPPqpPZG-12" value="+ _name: string&lt;br&gt;+ _productId: int&lt;br&gt;+ _price: double&lt;br&gt;+ _quantity: int" style="text;strokeColor=none;fillColor=none;align=left;verticalAlign=top;spacingLeft=4;spacingRight=4;overflow=hidden;rotatable=0;points=[[0,0.5],[1,0.5]];portConstraint=eastwest;whiteSpace=wrap;html=1;" parent="TwpSb7jkZS82dPPqpPZG-11" vertex="1">
          <mxGeometry y="26" width="190" height="74" as="geometry" />
        </mxCell>
        <mxCell id="TwpSb7jkZS82dPPqpPZG-13" value="" style="line;strokeWidth=1;fillColor=none;align=left;verticalAlign=middle;spacingTop=-1;spacingLeft=3;spacingRight=3;rotatable=0;labelPosition=right;points=[];portConstraint=eastwest;strokeColor=inherit;" parent="TwpSb7jkZS82dPPqpPZG-11" vertex="1">
          <mxGeometry y="100" width="190" height="8" as="geometry" />
        </mxCell>
        <mxCell id="TwpSb7jkZS82dPPqpPZG-14" value="+ CalculatePrice(): double" style="text;strokeColor=none;fillColor=none;align=left;verticalAlign=top;spacingLeft=4;spacingRight=4;overflow=hidden;rotatable=0;points=[[0,0.5],[1,0.5]];portConstraint=eastwest;whiteSpace=wrap;html=1;" parent="TwpSb7jkZS82dPPqpPZG-11" vertex="1">
          <mxGeometry y="108" width="190" height="26" as="geometry" />
        </mxCell>
        <mxCell id="TwpSb7jkZS82dPPqpPZG-27" value="Customer" style="swimlane;fontStyle=1;align=center;verticalAlign=top;childLayout=stackLayout;horizontal=1;startSize=26;horizontalStack=0;resizeParent=1;resizeParentMax=0;resizeLast=0;collapsible=1;marginBottom=0;whiteSpace=wrap;html=1;" parent="1" vertex="1">
          <mxGeometry x="230" y="250" width="190" height="88" as="geometry" />
        </mxCell>
        <mxCell id="TwpSb7jkZS82dPPqpPZG-28" value="+ _name: string&lt;br&gt;+ _address: Address" style="text;strokeColor=none;fillColor=none;align=left;verticalAlign=top;spacingLeft=4;spacingRight=4;overflow=hidden;rotatable=0;points=[[0,0.5],[1,0.5]];portConstraint=eastwest;whiteSpace=wrap;html=1;" parent="TwpSb7jkZS82dPPqpPZG-27" vertex="1">
          <mxGeometry y="26" width="190" height="54" as="geometry" />
        </mxCell>
        <mxCell id="TwpSb7jkZS82dPPqpPZG-29" value="" style="line;strokeWidth=1;fillColor=none;align=left;verticalAlign=middle;spacingTop=-1;spacingLeft=3;spacingRight=3;rotatable=0;labelPosition=right;points=[];portConstraint=eastwest;strokeColor=inherit;" parent="TwpSb7jkZS82dPPqpPZG-27" vertex="1">
          <mxGeometry y="80" width="190" height="8" as="geometry" />
        </mxCell>
        <mxCell id="TwpSb7jkZS82dPPqpPZG-31" value="Addresss" style="swimlane;fontStyle=1;align=center;verticalAlign=top;childLayout=stackLayout;horizontal=1;startSize=26;horizontalStack=0;resizeParent=1;resizeParentMax=0;resizeLast=0;collapsible=1;marginBottom=0;whiteSpace=wrap;html=1;" parent="1" vertex="1">
          <mxGeometry x="230" y="380" width="190" height="150" as="geometry" />
        </mxCell>
        <mxCell id="TwpSb7jkZS82dPPqpPZG-32" value="+ _street: string&lt;br&gt;+ _city: string&lt;br&gt;+ _state: string&lt;br&gt;+ _country: string" style="text;strokeColor=none;fillColor=none;align=left;verticalAlign=top;spacingLeft=4;spacingRight=4;overflow=hidden;rotatable=0;points=[[0,0.5],[1,0.5]];portConstraint=eastwest;whiteSpace=wrap;html=1;" parent="TwpSb7jkZS82dPPqpPZG-31" vertex="1">
          <mxGeometry y="26" width="190" height="74" as="geometry" />
        </mxCell>
        <mxCell id="TwpSb7jkZS82dPPqpPZG-33" value="" style="line;strokeWidth=1;fillColor=none;align=left;verticalAlign=middle;spacingTop=-1;spacingLeft=3;spacingRight=3;rotatable=0;labelPosition=right;points=[];portConstraint=eastwest;strokeColor=inherit;" parent="TwpSb7jkZS82dPPqpPZG-31" vertex="1">
          <mxGeometry y="100" width="190" height="8" as="geometry" />
        </mxCell>
        <mxCell id="TwpSb7jkZS82dPPqpPZG-34" value="+ LivesInUSA(): bool&lt;br&gt;+ ReturnStreetAddress(): string&amp;nbsp;" style="text;strokeColor=none;fillColor=none;align=left;verticalAlign=top;spacingLeft=4;spacingRight=4;overflow=hidden;rotatable=0;points=[[0,0.5],[1,0.5]];portConstraint=eastwest;whiteSpace=wrap;html=1;" parent="TwpSb7jkZS82dPPqpPZG-31" vertex="1">
          <mxGeometry y="108" width="190" height="42" as="geometry" />
        </mxCell>
        <mxCell id="TwpSb7jkZS82dPPqpPZG-35" value="Order" style="swimlane;fontStyle=1;align=center;verticalAlign=top;childLayout=stackLayout;horizontal=1;startSize=26;horizontalStack=0;resizeParent=1;resizeParentMax=0;resizeLast=0;collapsible=1;marginBottom=0;whiteSpace=wrap;html=1;" parent="1" vertex="1">
          <mxGeometry x="230" y="540" width="190" height="150" as="geometry" />
        </mxCell>
        <mxCell id="TwpSb7jkZS82dPPqpPZG-36" value="+ _products: List&amp;lt;Product&amp;gt;&lt;br&gt;+ _customers: List&amp;lt;Customer&amp;gt;" style="text;strokeColor=none;fillColor=none;align=left;verticalAlign=top;spacingLeft=4;spacingRight=4;overflow=hidden;rotatable=0;points=[[0,0.5],[1,0.5]];portConstraint=eastwest;whiteSpace=wrap;html=1;" parent="TwpSb7jkZS82dPPqpPZG-35" vertex="1">
          <mxGeometry y="26" width="190" height="54" as="geometry" />
        </mxCell>
        <mxCell id="TwpSb7jkZS82dPPqpPZG-37" value="" style="line;strokeWidth=1;fillColor=none;align=left;verticalAlign=middle;spacingTop=-1;spacingLeft=3;spacingRight=3;rotatable=0;labelPosition=right;points=[];portConstraint=eastwest;strokeColor=inherit;" parent="TwpSb7jkZS82dPPqpPZG-35" vertex="1">
          <mxGeometry y="80" width="190" height="8" as="geometry" />
        </mxCell>
        <mxCell id="TwpSb7jkZS82dPPqpPZG-38" value="+ ReturnPackingLabel(): string&lt;br&gt;+ ReturnShippingLaebl(): string&lt;br&gt;+ CalculateTotal(): double" style="text;strokeColor=none;fillColor=none;align=left;verticalAlign=top;spacingLeft=4;spacingRight=4;overflow=hidden;rotatable=0;points=[[0,0.5],[1,0.5]];portConstraint=eastwest;whiteSpace=wrap;html=1;" parent="TwpSb7jkZS82dPPqpPZG-35" vertex="1">
          <mxGeometry y="88" width="190" height="62" as="geometry" />
        </mxCell>
        <mxCell id="TwpSb7jkZS82dPPqpPZG-39" value="Inheritance" style="rounded=0;whiteSpace=wrap;html=1;" parent="1" vertex="1">
          <mxGeometry x="460" y="30" width="370" height="40" as="geometry" />
        </mxCell>
        <mxCell id="TwpSb7jkZS82dPPqpPZG-40" value="Event" style="swimlane;fontStyle=1;align=center;verticalAlign=top;childLayout=stackLayout;horizontal=1;startSize=26;horizontalStack=0;resizeParent=1;resizeParentMax=0;resizeLast=0;collapsible=1;marginBottom=0;whiteSpace=wrap;html=1;" parent="1" vertex="1">
          <mxGeometry x="610" y="90" width="220" height="190" as="geometry" />
        </mxCell>
        <mxCell id="TwpSb7jkZS82dPPqpPZG-41" value="+ _title: string&lt;br&gt;+ _desccription: string&lt;br&gt;+ _date: string&lt;br&gt;+ _time : string&lt;br&gt;+ _address: string" style="text;strokeColor=none;fillColor=none;align=left;verticalAlign=top;spacingLeft=4;spacingRight=4;overflow=hidden;rotatable=0;points=[[0,0.5],[1,0.5]];portConstraint=eastwest;whiteSpace=wrap;html=1;" parent="TwpSb7jkZS82dPPqpPZG-40" vertex="1">
          <mxGeometry y="26" width="220" height="84" as="geometry" />
        </mxCell>
        <mxCell id="TwpSb7jkZS82dPPqpPZG-42" value="" style="line;strokeWidth=1;fillColor=none;align=left;verticalAlign=middle;spacingTop=-1;spacingLeft=3;spacingRight=3;rotatable=0;labelPosition=right;points=[];portConstraint=eastwest;strokeColor=inherit;" parent="TwpSb7jkZS82dPPqpPZG-40" vertex="1">
          <mxGeometry y="110" width="220" height="8" as="geometry" />
        </mxCell>
        <mxCell id="TwpSb7jkZS82dPPqpPZG-43" value="+ Product(string title, string description, string date, string time, string address)&lt;br&gt;+ DisplayStandardDetails(): string&lt;br&gt;+ DisplayShortDescription(): string" style="text;strokeColor=none;fillColor=none;align=left;verticalAlign=top;spacingLeft=4;spacingRight=4;overflow=hidden;rotatable=0;points=[[0,0.5],[1,0.5]];portConstraint=eastwest;whiteSpace=wrap;html=1;" parent="TwpSb7jkZS82dPPqpPZG-40" vertex="1">
          <mxGeometry y="118" width="220" height="72" as="geometry" />
        </mxCell>
        <mxCell id="TwpSb7jkZS82dPPqpPZG-48" value="Lecture" style="swimlane;fontStyle=1;align=center;verticalAlign=top;childLayout=stackLayout;horizontal=1;startSize=26;horizontalStack=0;resizeParent=1;resizeParentMax=0;resizeLast=0;collapsible=1;marginBottom=0;whiteSpace=wrap;html=1;" parent="1" vertex="1">
          <mxGeometry x="460" y="320" width="190" height="104" as="geometry" />
        </mxCell>
        <mxCell id="TwpSb7jkZS82dPPqpPZG-49" value="+ _speaker: string&lt;br&gt;+ _capacity: int" style="text;strokeColor=none;fillColor=none;align=left;verticalAlign=top;spacingLeft=4;spacingRight=4;overflow=hidden;rotatable=0;points=[[0,0.5],[1,0.5]];portConstraint=eastwest;whiteSpace=wrap;html=1;" parent="TwpSb7jkZS82dPPqpPZG-48" vertex="1">
          <mxGeometry y="26" width="190" height="44" as="geometry" />
        </mxCell>
        <mxCell id="TwpSb7jkZS82dPPqpPZG-50" value="" style="line;strokeWidth=1;fillColor=none;align=left;verticalAlign=middle;spacingTop=-1;spacingLeft=3;spacingRight=3;rotatable=0;labelPosition=right;points=[];portConstraint=eastwest;strokeColor=inherit;" parent="TwpSb7jkZS82dPPqpPZG-48" vertex="1">
          <mxGeometry y="70" width="190" height="8" as="geometry" />
        </mxCell>
        <mxCell id="TwpSb7jkZS82dPPqpPZG-51" value="+ DisplayFullDetails(): void" style="text;strokeColor=none;fillColor=none;align=left;verticalAlign=top;spacingLeft=4;spacingRight=4;overflow=hidden;rotatable=0;points=[[0,0.5],[1,0.5]];portConstraint=eastwest;whiteSpace=wrap;html=1;" parent="TwpSb7jkZS82dPPqpPZG-48" vertex="1">
          <mxGeometry y="78" width="190" height="26" as="geometry" />
        </mxCell>
        <mxCell id="TwpSb7jkZS82dPPqpPZG-52" value="Reception" style="swimlane;fontStyle=1;align=center;verticalAlign=top;childLayout=stackLayout;horizontal=1;startSize=26;horizontalStack=0;resizeParent=1;resizeParentMax=0;resizeLast=0;collapsible=1;marginBottom=0;whiteSpace=wrap;html=1;" parent="1" vertex="1">
          <mxGeometry x="460" y="456" width="190" height="94" as="geometry" />
        </mxCell>
        <mxCell id="TwpSb7jkZS82dPPqpPZG-53" value="+ _email: string" style="text;strokeColor=none;fillColor=none;align=left;verticalAlign=top;spacingLeft=4;spacingRight=4;overflow=hidden;rotatable=0;points=[[0,0.5],[1,0.5]];portConstraint=eastwest;whiteSpace=wrap;html=1;" parent="TwpSb7jkZS82dPPqpPZG-52" vertex="1">
          <mxGeometry y="26" width="190" height="34" as="geometry" />
        </mxCell>
        <mxCell id="TwpSb7jkZS82dPPqpPZG-54" value="" style="line;strokeWidth=1;fillColor=none;align=left;verticalAlign=middle;spacingTop=-1;spacingLeft=3;spacingRight=3;rotatable=0;labelPosition=right;points=[];portConstraint=eastwest;strokeColor=inherit;" parent="TwpSb7jkZS82dPPqpPZG-52" vertex="1">
          <mxGeometry y="60" width="190" height="8" as="geometry" />
        </mxCell>
        <mxCell id="TwpSb7jkZS82dPPqpPZG-55" value="+ DisplayFullDetails(): void" style="text;strokeColor=none;fillColor=none;align=left;verticalAlign=top;spacingLeft=4;spacingRight=4;overflow=hidden;rotatable=0;points=[[0,0.5],[1,0.5]];portConstraint=eastwest;whiteSpace=wrap;html=1;" parent="TwpSb7jkZS82dPPqpPZG-52" vertex="1">
          <mxGeometry y="68" width="190" height="26" as="geometry" />
        </mxCell>
        <mxCell id="TwpSb7jkZS82dPPqpPZG-56" value="OutdoorGathering" style="swimlane;fontStyle=1;align=center;verticalAlign=top;childLayout=stackLayout;horizontal=1;startSize=26;horizontalStack=0;resizeParent=1;resizeParentMax=0;resizeLast=0;collapsible=1;marginBottom=0;whiteSpace=wrap;html=1;" parent="1" vertex="1">
          <mxGeometry x="460" y="590" width="190" height="94" as="geometry" />
        </mxCell>
        <mxCell id="TwpSb7jkZS82dPPqpPZG-57" value="+ _weather: string" style="text;strokeColor=none;fillColor=none;align=left;verticalAlign=top;spacingLeft=4;spacingRight=4;overflow=hidden;rotatable=0;points=[[0,0.5],[1,0.5]];portConstraint=eastwest;whiteSpace=wrap;html=1;" parent="TwpSb7jkZS82dPPqpPZG-56" vertex="1">
          <mxGeometry y="26" width="190" height="34" as="geometry" />
        </mxCell>
        <mxCell id="TwpSb7jkZS82dPPqpPZG-58" value="" style="line;strokeWidth=1;fillColor=none;align=left;verticalAlign=middle;spacingTop=-1;spacingLeft=3;spacingRight=3;rotatable=0;labelPosition=right;points=[];portConstraint=eastwest;strokeColor=inherit;" parent="TwpSb7jkZS82dPPqpPZG-56" vertex="1">
          <mxGeometry y="60" width="190" height="8" as="geometry" />
        </mxCell>
        <mxCell id="TwpSb7jkZS82dPPqpPZG-59" value="+ DisplayFullDetails(): void" style="text;strokeColor=none;fillColor=none;align=left;verticalAlign=top;spacingLeft=4;spacingRight=4;overflow=hidden;rotatable=0;points=[[0,0.5],[1,0.5]];portConstraint=eastwest;whiteSpace=wrap;html=1;" parent="TwpSb7jkZS82dPPqpPZG-56" vertex="1">
          <mxGeometry y="68" width="190" height="26" as="geometry" />
        </mxCell>
        <mxCell id="TwpSb7jkZS82dPPqpPZG-66" style="edgeStyle=orthogonalEdgeStyle;rounded=0;orthogonalLoop=1;jettySize=auto;html=1;exitX=1;exitY=0.5;exitDx=0;exitDy=0;entryX=0.591;entryY=1;entryDx=0;entryDy=0;entryPerimeter=0;" parent="1" source="TwpSb7jkZS82dPPqpPZG-53" target="TwpSb7jkZS82dPPqpPZG-43" edge="1">
          <mxGeometry relative="1" as="geometry">
            <mxPoint x="740" y="300" as="targetPoint" />
            <Array as="points">
              <mxPoint x="740" y="533" />
            </Array>
          </mxGeometry>
        </mxCell>
        <mxCell id="TwpSb7jkZS82dPPqpPZG-67" style="edgeStyle=orthogonalEdgeStyle;rounded=0;orthogonalLoop=1;jettySize=auto;html=1;exitX=1;exitY=0.5;exitDx=0;exitDy=0;entryX=0.72;entryY=1.012;entryDx=0;entryDy=0;entryPerimeter=0;" parent="1" source="TwpSb7jkZS82dPPqpPZG-57" target="TwpSb7jkZS82dPPqpPZG-43" edge="1">
          <mxGeometry relative="1" as="geometry">
            <mxPoint x="770" y="290" as="targetPoint" />
          </mxGeometry>
        </mxCell>
        <mxCell id="TwpSb7jkZS82dPPqpPZG-65" value="z" style="edgeStyle=orthogonalEdgeStyle;rounded=0;orthogonalLoop=1;jettySize=auto;html=1;exitX=1;exitY=0.5;exitDx=0;exitDy=0;entryX=0.447;entryY=0.989;entryDx=0;entryDy=0;entryPerimeter=0;" parent="1" source="TwpSb7jkZS82dPPqpPZG-49" target="TwpSb7jkZS82dPPqpPZG-43" edge="1">
          <mxGeometry relative="1" as="geometry">
            <mxPoint x="710" y="290" as="targetPoint" />
          </mxGeometry>
        </mxCell>
      </root>
    </mxGraphModel>
  </diagram>
</mxfile>
